<svg xmlns="http://www.w3.org/2000/svg" version="1.1" xmlns:xlink="http://www.w3.org/1999/xlink" width="1000" height="1000"><style>
    #light-icon {
      display: inline;
    }
    #dark-icon {
      display: none;
    }

    @media (prefers-color-scheme: dark) {
      #light-icon {
        display: none;
      }
      #dark-icon {
        display: inline;
      }
    }
  </style><g id="light-icon"><svg xmlns="http://www.w3.org/2000/svg" version="1.1" xmlns:xlink="http://www.w3.org/1999/xlink" width="1000" height="1000"><g><g transform="matrix(18.867924528301888,0,0,18.867924528301888,-5.684341886080802e-14,-5.684341886080802e-14)"><svg xmlns="http://www.w3.org/2000/svg" width="53" height="53" viewBox="0 0 53 53" fill="none"><g clip-path="url(#clip0_718_2049)">
<path d="M15.7785 25.1191H51.45H51.4512C52.1101 25.1191 52.6436 25.6138 52.6436 26.2245V28.7959C52.6436 31.6174 50.1769 33.904 47.1334 33.904H40.2163C39.6683 33.904 39.2034 34.2759 39.1239 34.7783C38.7289 37.2659 37.0342 47.3315 35.9996 53.4624H13.4316L22.0114 30.3557H20.2168C17.5514 30.3557 15.3172 28.644 14.7234 26.3417C14.562 25.7176 15.0859 25.1191 15.7785 25.1191Z" fill="#40295B"></path>
<path d="M35.24 26.4609C35.8459 26.4609 36.3385 26.9572 36.3385 27.5701C36.3385 28.1831 35.8471 28.6793 35.24 28.6793C34.633 28.6793 34.1416 28.1831 34.1416 27.5701C34.1416 26.9572 34.633 26.4609 35.24 26.4609Z" fill="white"></path>
<path d="M13.6941 17.8682C19.1381 21.2446 25.6697 23.0847 32.164 23.0847C32.4097 23.0847 32.6542 23.0824 32.8999 23.0768C33.5057 23.0634 33.9851 22.5978 33.9706 22.0373C33.9562 21.4757 33.4539 21.0313 32.8493 21.0447C29.006 21.1262 25.1325 20.5122 21.4952 19.275C20.9146 17.2128 20.5858 15.0824 20.5232 12.913C20.5123 12.5512 20.5099 12.1839 20.5147 11.8221C20.522 11.2605 20.0366 10.8005 19.4308 10.7938C18.8249 10.7871 18.3287 11.2371 18.3215 11.7987C18.3167 12.1873 18.3203 12.5803 18.3311 12.9677C18.3829 14.781 18.6118 16.5674 19.0032 18.3148C17.5856 17.6996 16.2161 16.9872 14.913 16.1789C14.1975 15.7356 13.5074 15.2678 12.8413 14.7776C12.0295 11.8355 11.7369 8.80973 11.9741 5.77945C12.0175 5.22006 11.5634 4.73325 10.96 4.69194C10.3566 4.65175 9.83147 5.07156 9.7869 5.63207C9.60624 7.93213 9.71102 10.2288 10.0952 12.4943C7.02876 9.61699 4.6717 6.16912 3.16375 2.31037C3.03126 1.96983 2.90239 1.62258 2.78436 1.27757C2.60008 0.742752 1.98341 0.447986 1.40649 0.618816C0.829568 0.789646 0.511599 1.36131 0.695876 1.89613H0.694672C0.822341 2.26571 0.958442 2.63863 1.10177 3.00262C3.48413 9.0978 7.83814 14.2383 13.6941 17.8693V17.8682Z" fill="#CAC1EA"></path>
</g><defs>
<clipPath id="clip0_718_2049">
<rect width="53" height="53" fill="white"></rect>
</clipPath>
</defs></svg></g></g></svg></g><g id="dark-icon"><svg xmlns="http://www.w3.org/2000/svg" version="1.1" xmlns:xlink="http://www.w3.org/1999/xlink" width="1000" height="1000"><g><g transform="matrix(18.867924528301888,0,0,18.867924528301888,-5.684341886080802e-14,-5.684341886080802e-14)"><svg xmlns="http://www.w3.org/2000/svg" width="53" height="53" viewBox="0 0 53 53" fill="none"><g clip-path="url(#clip0_718_2043)">
<path d="M15.7785 25.1191H51.45H51.4512C52.1101 25.1191 52.6436 25.6138 52.6436 26.2245V28.7959C52.6436 31.6174 50.1769 33.904 47.1334 33.904H40.2163C39.6683 33.904 39.2034 34.2759 39.1239 34.7783C38.7289 37.2659 37.0342 47.3315 35.9996 53.4624H13.4316L22.0114 30.3557H20.2168C17.5514 30.3557 15.3172 28.644 14.7234 26.3417C14.562 25.7176 15.0859 25.1191 15.7785 25.1191Z" fill="white"></path>
<path d="M35.24 26.4609C35.8459 26.4609 36.3385 26.9572 36.3385 27.5701C36.3385 28.1831 35.8471 28.6793 35.24 28.6793C34.633 28.6793 34.1416 28.1831 34.1416 27.5701C34.1416 26.9572 34.633 26.4609 35.24 26.4609Z" fill="#40295B"></path>
<path d="M13.6941 17.8682C19.1381 21.2446 25.6697 23.0847 32.164 23.0847C32.4097 23.0847 32.6542 23.0824 32.8999 23.0768C33.5057 23.0634 33.9851 22.5978 33.9706 22.0373C33.9562 21.4757 33.4539 21.0313 32.8493 21.0447C29.006 21.1262 25.1325 20.5122 21.4952 19.275C20.9146 17.2128 20.5858 15.0824 20.5232 12.913C20.5123 12.5512 20.5099 12.1839 20.5147 11.8221C20.522 11.2605 20.0366 10.8005 19.4308 10.7938C18.8249 10.7871 18.3287 11.2371 18.3215 11.7987C18.3167 12.1873 18.3203 12.5803 18.3311 12.9677C18.3829 14.781 18.6118 16.5674 19.0032 18.3148C17.5856 17.6996 16.2161 16.9872 14.913 16.1789C14.1975 15.7356 13.5074 15.2678 12.8413 14.7776C12.0295 11.8355 11.7369 8.80973 11.9741 5.77945C12.0175 5.22006 11.5634 4.73325 10.96 4.69194C10.3566 4.65175 9.83147 5.07156 9.7869 5.63207C9.60624 7.93213 9.71102 10.2288 10.0952 12.4943C7.02876 9.61699 4.6717 6.16912 3.16375 2.31037C3.03126 1.96983 2.90239 1.62258 2.78436 1.27757C2.60008 0.742752 1.98341 0.447986 1.40649 0.618816C0.829568 0.789646 0.511599 1.36131 0.695876 1.89613H0.694672C0.822341 2.26571 0.958442 2.63863 1.10177 3.00262C3.48413 9.0978 7.83814 14.2383 13.6941 17.8693V17.8682Z" fill="#E4E0F4"></path>
</g><defs>
<clipPath id="clip0_718_2043">
<rect width="53" height="53" fill="white"></rect>
</clipPath>
</defs></svg></g></g></svg></g></svg>