<svg width="120" height="120" viewBox="0 0 120 120" fill="none" xmlns="http://www.w3.org/2000/svg">
<g clip-path="url(#clip0_646_3619)">
<rect width="120" height="120" rx="45" fill="#40295B"/>
<rect x="54" y="80" width="4" height="4" fill="white"/>
<rect x="54" y="84" width="4" height="4" fill="white"/>
<rect x="58" y="80" width="4" height="4" fill="white"/>
<rect x="58" y="84" width="4" height="4" fill="white"/>
<rect x="62" y="80" width="4" height="4" fill="white"/>
<rect x="62" y="84" width="4" height="4" fill="white"/>
<rect x="78" y="50" width="4" height="4" fill="white"/>
<rect x="28" y="50" width="4" height="4" fill="white"/>
<rect x="82" y="46" width="4" height="4" fill="white"/>
<rect x="32" y="46" width="4" height="4" fill="white"/>
<rect x="86" y="46" width="4" height="4" fill="white"/>
<rect x="36" y="46" width="4" height="4" fill="white"/>
<rect x="90" y="50" width="4" height="4" fill="white"/>
<rect x="40" y="50" width="4" height="4" fill="white"/>
</g>
<defs>
<clipPath id="clip0_646_3619">
<rect width="120" height="120" fill="white"/>
</clipPath>
</defs>
</svg>
