<svg width="120" height="120" viewBox="0 0 120 120" fill="none" xmlns="http://www.w3.org/2000/svg">
<g clip-path="url(#clip0_646_2781)">
<rect width="120" height="120" rx="45" fill="#40295B"/>
<rect x="9" y="68" width="4" height="4" fill="white"/>
<rect x="61" y="68" width="4" height="4" fill="white"/>
<rect x="9" y="64" width="4" height="4" fill="white"/>
<rect x="61" y="64" width="4" height="4" fill="white"/>
<rect x="9" y="60" width="4" height="4" fill="white"/>
<rect x="61" y="60" width="4" height="4" fill="white"/>
<rect x="61" y="52" width="4" height="4" fill="white"/>
<rect x="9" y="56" width="4" height="4" fill="white"/>
<rect x="9" y="52" width="4" height="4" fill="white"/>
<rect x="9" y="48" width="4" height="4" fill="white"/>
<rect x="61" y="56" width="4" height="4" fill="white"/>
<rect x="61" y="48" width="4" height="4" fill="white"/>
<rect x="9" y="44" width="4" height="4" fill="white"/>
<rect x="61" y="44" width="4" height="4" fill="white"/>
<rect x="13" y="44" width="4" height="4" fill="white"/>
<rect x="13" y="48" width="4" height="4" fill="white"/>
<rect x="13" y="52" width="4" height="4" fill="white"/>
<rect x="13" y="56" width="4" height="4" fill="white"/>
<rect x="13" y="60" width="4" height="4" fill="white"/>
<rect x="13" y="64" width="4" height="4" fill="white"/>
<rect x="13" y="68" width="4" height="4" fill="white"/>
<rect x="65" y="44" width="4" height="4" fill="white"/>
<rect x="65" y="56" width="4" height="4" fill="white"/>
<rect x="65" y="48" width="4" height="4" fill="white"/>
<rect x="65" y="60" width="4" height="4" fill="white"/>
<rect x="65" y="52" width="4" height="4" fill="white"/>
<rect x="65" y="64" width="4" height="4" fill="white"/>
<rect x="65" y="68" width="4" height="4" fill="white"/>
<rect x="13" y="40" width="4" height="4" fill="white"/>
<rect x="65" y="40" width="4" height="4" fill="white"/>
<rect x="13" y="72" width="4" height="4" fill="white"/>
<rect x="65" y="72" width="4" height="4" fill="white"/>
<rect x="17" y="72" width="4" height="4" fill="white"/>
<rect x="69" y="72" width="4" height="4" fill="white"/>
<rect x="37" y="80" width="4" height="4" fill="white"/>
<rect x="37" y="84" width="4" height="4" fill="white"/>
<rect x="41" y="80" width="4" height="4" fill="white"/>
<rect x="41" y="84" width="4" height="4" fill="white"/>
<rect x="45" y="80" width="4" height="4" fill="white"/>
<rect x="45" y="84" width="4" height="4" fill="white"/>
<rect x="17" y="44" width="4" height="4" fill="white"/>
<rect x="17" y="48" width="4" height="4" fill="white"/>
<rect x="17" y="52" width="4" height="4" fill="white"/>
<rect x="17" y="56" width="4" height="4" fill="white"/>
<rect x="17" y="60" width="4" height="4" fill="white"/>
<rect x="17" y="64" width="4" height="4" fill="white"/>
<rect x="17" y="68" width="4" height="4" fill="white"/>
<rect x="69" y="44" width="4" height="4" fill="white"/>
<rect x="69" y="56" width="4" height="4" fill="white"/>
<rect x="69" y="48" width="4" height="4" fill="white"/>
<rect x="69" y="60" width="4" height="4" fill="white"/>
<rect x="69" y="52" width="4" height="4" fill="white"/>
<rect x="69" y="64" width="4" height="4" fill="white"/>
<rect x="69" y="68" width="4" height="4" fill="white"/>
<rect x="17" y="40" width="4" height="4" fill="white"/>
<rect x="69" y="40" width="4" height="4" fill="white"/>
<rect x="21" y="68" width="4" height="4" fill="white"/>
<rect x="73" y="68" width="4" height="4" fill="white"/>
<rect x="21" y="64" width="4" height="4" fill="white"/>
<rect x="73" y="64" width="4" height="4" fill="white"/>
<rect x="21" y="60" width="4" height="4" fill="white"/>
<rect x="73" y="60" width="4" height="4" fill="white"/>
<rect x="73" y="52" width="4" height="4" fill="white"/>
<rect x="21" y="56" width="4" height="4" fill="white"/>
<rect x="21" y="52" width="4" height="4" fill="white"/>
<rect x="21" y="48" width="4" height="4" fill="white"/>
<rect x="73" y="56" width="4" height="4" fill="white"/>
<rect x="73" y="48" width="4" height="4" fill="white"/>
<rect x="21" y="44" width="4" height="4" fill="white"/>
<rect x="73" y="44" width="4" height="4" fill="white"/>
</g>
<defs>
<clipPath id="clip0_646_2781">
<rect width="120" height="120" fill="white"/>
</clipPath>
</defs>
</svg>
