<svg width="120" height="120" viewBox="0 0 120 120" fill="none" xmlns="http://www.w3.org/2000/svg">
<g clip-path="url(#clip0_646_2453)">
<rect width="120" height="120" rx="45" fill="#40295B"/>
<rect x="26" y="68" width="4" height="4" fill="white"/>
<rect x="78" y="68" width="4" height="4" fill="white"/>
<rect x="26" y="64" width="4" height="4" fill="white"/>
<rect x="78" y="64" width="4" height="4" fill="white"/>
<rect x="26" y="60" width="4" height="4" fill="white"/>
<rect x="78" y="60" width="4" height="4" fill="white"/>
<rect x="26" y="56" width="4" height="4" fill="white"/>
<rect x="26" y="52" width="4" height="4" fill="white"/>
<rect x="26" y="48" width="4" height="4" fill="white"/>
<rect x="78" y="56" width="4" height="4" fill="white"/>
<rect x="26" y="44" width="4" height="4" fill="white"/>
<rect x="78" y="52" width="4" height="4" fill="white"/>
<rect x="30" y="44" width="4" height="4" fill="white"/>
<rect x="30" y="48" width="4" height="4" fill="white"/>
<rect x="30" y="52" width="4" height="4" fill="white"/>
<rect x="30" y="56" width="4" height="4" fill="white"/>
<rect x="30" y="60" width="4" height="4" fill="white"/>
<rect x="30" y="64" width="4" height="4" fill="white"/>
<rect x="30" y="68" width="4" height="4" fill="white"/>
<rect x="82" y="52" width="4" height="4" fill="white"/>
<rect x="82" y="56" width="4" height="4" fill="white"/>
<rect x="82" y="60" width="4" height="4" fill="white"/>
<rect x="82" y="64" width="4" height="4" fill="white"/>
<rect x="82" y="68" width="4" height="4" fill="white"/>
<rect x="30" y="40" width="4" height="4" fill="white"/>
<rect x="82" y="48" width="4" height="4" fill="white"/>
<rect x="86" y="24" width="4" height="4" fill="white"/>
<rect x="90" y="24" width="4" height="4" fill="white"/>
<rect x="94" y="28" width="4" height="4" fill="white"/>
<rect x="78" y="28" width="4" height="4" fill="white"/>
<rect x="82" y="24" width="4" height="4" fill="white"/>
<rect x="74" y="32" width="4" height="4" fill="white"/>
<rect x="70" y="36" width="4" height="4" fill="white"/>
<rect x="30" y="72" width="4" height="4" fill="white"/>
<rect x="82" y="72" width="4" height="4" fill="white"/>
<rect x="34" y="72" width="4" height="4" fill="white"/>
<rect x="86" y="72" width="4" height="4" fill="white"/>
<rect x="54" y="80" width="4" height="4" fill="white"/>
<rect x="58" y="80" width="4" height="4" fill="white"/>
<rect x="58" y="84" width="4" height="4" fill="white"/>
<rect x="62" y="80" width="4" height="4" fill="white"/>
<rect x="62" y="84" width="4" height="4" fill="white"/>
<rect x="34" y="44" width="4" height="4" fill="white"/>
<rect x="34" y="48" width="4" height="4" fill="white"/>
<rect x="34" y="52" width="4" height="4" fill="white"/>
<rect x="34" y="56" width="4" height="4" fill="white"/>
<rect x="34" y="60" width="4" height="4" fill="white"/>
<rect x="34" y="64" width="4" height="4" fill="white"/>
<rect x="34" y="68" width="4" height="4" fill="white"/>
<rect x="86" y="52" width="4" height="4" fill="white"/>
<rect x="86" y="56" width="4" height="4" fill="white"/>
<rect x="86" y="60" width="4" height="4" fill="white"/>
<rect x="86" y="64" width="4" height="4" fill="white"/>
<rect x="86" y="68" width="4" height="4" fill="white"/>
<rect x="34" y="40" width="4" height="4" fill="white"/>
<rect x="86" y="48" width="4" height="4" fill="white"/>
<rect x="38" y="68" width="4" height="4" fill="white"/>
<rect x="90" y="68" width="4" height="4" fill="white"/>
<rect x="38" y="64" width="4" height="4" fill="white"/>
<rect x="90" y="64" width="4" height="4" fill="white"/>
<rect x="38" y="60" width="4" height="4" fill="white"/>
<rect x="90" y="60" width="4" height="4" fill="white"/>
<rect x="38" y="56" width="4" height="4" fill="white"/>
<rect x="38" y="52" width="4" height="4" fill="white"/>
<rect x="38" y="48" width="4" height="4" fill="white"/>
<rect x="90" y="56" width="4" height="4" fill="white"/>
<rect x="38" y="44" width="4" height="4" fill="white"/>
<rect x="90" y="52" width="4" height="4" fill="white"/>
</g>
<defs>
<clipPath id="clip0_646_2453">
<rect width="120" height="120" fill="white"/>
</clipPath>
</defs>
</svg>
